<?xml version="1.0" encoding="utf-8"?>
<svg version="1.1" id="Layer_1" x="0px" y="0px" viewBox="-8.793159484863281 -3.1975135803222656 110 110" enable-background="new 0 0 320.1 99.9" width="500px" height="500px" style="width: 100%; height: 100%;" xmlns="http://www.w3.org/2000/svg">
  <path d="M 147.689 31.169 C 147.689 34.127 145.307 36.511 142.349 36.511 C 139.391 36.511 137.007 34.127 137.007 31.169 C 137.007 28.211 139.308 25.828 142.349 25.828 C 145.389 25.91 147.689 28.294 147.689 31.169 Z M 125.667 41.933 C 125.667 42.426 125.667 43.249 125.667 43.249 C 125.667 43.249 123.121 39.96 117.7 39.96 C 108.743 39.96 101.758 46.781 101.758 56.229 C 101.758 65.597 108.661 72.498 117.7 72.498 C 123.203 72.498 125.667 69.129 125.667 69.129 L 125.667 70.527 C 125.667 71.184 126.161 71.678 126.818 71.678 L 133.475 71.678 L 133.475 40.782 C 133.475 40.782 127.394 40.782 126.818 40.782 C 126.161 40.782 125.667 41.359 125.667 41.933 Z M 125.667 61.734 C 124.436 63.541 121.97 65.103 119.013 65.103 C 113.754 65.103 109.729 61.817 109.729 56.229 C 109.729 50.643 113.754 47.357 119.013 47.357 C 121.89 47.357 124.519 48.999 125.667 50.726 L 125.667 61.734 Z M 138.404 40.782 L 146.292 40.782 L 146.292 71.678 L 138.404 71.678 L 138.404 40.782 Z M 256.227 39.96 C 250.806 39.96 248.259 43.249 248.259 43.249 L 248.259 25.91 L 240.371 25.91 L 240.371 71.678 C 240.371 71.678 246.452 71.678 247.026 71.678 C 247.683 71.678 248.176 71.101 248.176 70.527 L 248.176 69.129 L 248.176 69.129 C 248.176 69.129 250.723 72.498 256.147 72.498 C 265.102 72.498 272.086 65.597 272.086 56.229 C 272.086 46.863 265.102 39.96 256.227 39.96 Z M 254.914 65.02 C 251.874 65.02 249.49 63.461 248.259 61.651 L 248.259 50.643 C 249.49 48.999 252.12 47.274 254.914 47.274 C 260.172 47.274 264.198 50.561 264.198 56.147 C 264.198 61.734 260.172 65.02 254.914 65.02 Z M 236.262 53.354 L 236.262 71.758 L 228.375 71.758 L 228.375 54.257 C 228.375 49.164 226.731 47.109 222.294 47.109 C 219.912 47.109 217.446 48.342 215.885 50.15 L 215.885 71.678 L 207.997 71.678 L 207.997 40.782 L 214.243 40.782 C 214.9 40.782 215.393 41.359 215.393 41.933 L 215.393 43.249 C 217.692 40.865 220.733 39.96 223.773 39.96 C 227.225 39.96 230.099 40.948 232.4 42.918 C 235.194 45.219 236.262 48.177 236.262 53.354 Z M 188.854 39.96 C 183.43 39.96 180.883 43.249 180.883 43.249 L 180.883 25.91 L 172.996 25.91 L 172.996 71.678 C 172.996 71.678 179.076 71.678 179.65 71.678 C 180.307 71.678 180.801 71.101 180.801 70.527 L 180.801 69.129 L 180.801 69.129 C 180.801 69.129 183.348 72.498 188.772 72.498 C 197.728 72.498 204.71 65.597 204.71 56.229 C 204.793 46.863 197.81 39.96 188.854 39.96 Z M 187.538 65.02 C 184.498 65.02 182.116 63.461 180.883 61.651 L 180.883 50.643 C 182.116 48.999 184.746 47.274 187.538 47.274 C 192.797 47.274 196.823 50.561 196.823 56.147 C 196.823 61.734 192.797 65.02 187.538 65.02 Z M 166.176 39.96 C 168.559 39.96 169.791 40.371 169.791 40.371 L 169.791 47.685 C 169.791 47.685 163.218 45.467 159.109 50.15 L 159.109 71.758 L 151.221 71.758 L 151.221 40.782 C 151.221 40.782 157.302 40.782 157.876 40.782 C 158.535 40.782 159.027 41.359 159.027 41.933 L 159.027 43.249 C 160.506 41.522 163.711 39.96 166.176 39.96 Z M 84.258 68.883 C 83.847 67.898 83.436 66.83 83.024 65.925 C 82.368 64.446 81.711 63.05 81.137 61.734 L 81.054 61.651 C 75.384 49.327 69.303 36.839 62.895 24.514 L 62.649 24.022 C 61.992 22.788 61.333 21.475 60.676 20.159 C 59.854 18.68 59.034 17.119 57.719 15.64 C 55.089 12.353 51.309 10.546 47.283 10.546 C 43.175 10.546 39.478 12.353 36.766 15.476 C 35.534 16.955 34.631 18.517 33.809 19.996 C 33.152 21.31 32.495 22.625 31.836 23.856 L 31.591 24.349 C 25.264 36.674 19.1 49.164 13.432 61.488 L 13.35 61.651 C 12.774 62.967 12.117 64.364 11.46 65.842 C 11.049 66.747 10.638 67.732 10.227 68.8 C 9.159 71.841 8.831 74.716 9.241 77.676 C 10.144 83.836 14.252 89.013 19.922 91.314 C 22.058 92.218 24.279 92.629 26.578 92.629 C 27.236 92.629 28.056 92.547 28.715 92.464 C 31.425 92.136 34.22 91.231 36.931 89.669 C 40.3 87.779 43.504 85.069 47.118 81.124 C 50.735 85.069 54.021 87.779 57.308 89.669 C 60.02 91.231 62.814 92.136 65.523 92.464 C 66.182 92.547 67.002 92.629 67.661 92.629 C 69.96 92.629 72.261 92.218 74.316 91.314 C 80.067 89.013 84.094 83.754 84.997 77.676 C 85.654 74.799 85.325 71.923 84.258 68.883 Z M 47.201 73.156 C 42.764 67.569 39.889 62.31 38.902 57.872 C 38.493 55.984 38.41 54.339 38.656 52.861 C 38.821 51.546 39.313 50.395 39.971 49.41 C 41.531 47.192 44.16 45.795 47.201 45.795 C 50.241 45.795 52.953 47.109 54.432 49.41 C 55.089 50.395 55.583 51.546 55.746 52.861 C 55.994 54.339 55.911 56.064 55.5 57.872 C 54.515 62.228 51.638 67.487 47.201 73.156 Z M 79.986 77.017 C 79.41 81.29 76.535 84.987 72.509 86.631 C 70.536 87.451 68.4 87.699 66.263 87.451 C 64.209 87.205 62.155 86.548 60.02 85.315 C 57.062 83.671 54.104 81.124 50.652 77.345 C 56.076 70.69 59.363 64.609 60.594 59.187 C 61.17 56.64 61.253 54.339 61.005 52.204 C 60.676 50.15 59.937 48.26 58.786 46.617 C 56.24 42.918 51.968 40.782 47.201 40.782 C 42.436 40.782 38.162 43.001 35.616 46.617 C 34.466 48.26 33.726 50.15 33.398 52.204 C 33.069 54.339 33.152 56.723 33.809 59.187 C 35.042 64.609 38.41 70.773 43.749 77.428 C 40.38 81.207 37.342 83.754 34.385 85.398 C 32.247 86.631 30.194 87.288 28.139 87.534 C 25.921 87.779 23.785 87.451 21.895 86.712 C 17.869 85.069 14.992 81.372 14.418 77.1 C 14.172 75.046 14.335 72.991 15.157 70.69 C 15.403 69.868 15.814 69.048 16.225 68.061 C 16.801 66.747 17.458 65.349 18.115 63.952 L 18.198 63.789 C 23.868 51.546 29.946 39.058 36.273 26.896 L 36.52 26.404 C 37.177 25.171 37.834 23.856 38.493 22.625 C 39.149 21.31 39.889 20.078 40.792 19.009 C 42.518 17.038 44.819 15.97 47.366 15.97 C 49.913 15.97 52.214 17.038 53.939 19.009 C 54.843 20.078 55.583 21.31 56.24 22.625 C 56.896 23.856 57.555 25.171 58.212 26.404 L 58.458 26.896 C 61.609 33.076 64.721 39.319 67.756 45.562 C 70.737 51.686 73.644 57.808 76.452 63.87 L 76.452 63.952 C 77.109 65.268 77.685 66.747 78.342 68.061 C 78.753 69.048 79.164 69.868 79.41 70.69 C 80.067 72.826 80.314 74.881 79.986 77.017 Z"/>
  <rect class="cls-2" x="-6.447" y="-1.069" width="105.72" height="105.72" rx="16.25" ry="16.25" style="fill: none; stroke: rgb(0, 0, 0); stroke-miterlimit: 10; stroke-width: 2;"/>
</svg>