<?xml version="1.0" encoding="utf-8"?>
<svg version="1.1" id="Layer_1" x="0px" y="0px" viewBox="-8.793159484863281 -3.1975135803222656 110 110" enable-background="new 0 0 320.1 99.9" width="500px" height="500px" xmlns="http://www.w3.org/2000/svg" style="width: 100%; height: 100%;">
  <path d="M 168.7 25.1 C 168.7 28.7 165.8 31.6 162.2 31.6 C 158.6 31.6 155.7 28.7 155.7 25.1 C 155.7 21.5 158.5 18.6 162.2 18.6 C 165.9 18.7 168.7 21.6 168.7 25.1 Z M 141.9 38.2 C 141.9 38.8 141.9 39.8 141.9 39.8 C 141.9 39.8 138.8 35.8 132.2 35.8 C 121.3 35.8 112.8 44.1 112.8 55.6 C 112.8 67 121.2 75.4 132.2 75.4 C 138.9 75.4 141.9 71.3 141.9 71.3 L 141.9 73 C 141.9 73.8 142.5 74.4 143.3 74.4 L 151.4 74.4 L 151.4 36.8 C 151.4 36.8 144 36.8 143.3 36.8 C 142.5 36.8 141.9 37.5 141.9 38.2 Z M 141.9 62.3 C 140.4 64.5 137.4 66.4 133.8 66.4 C 127.4 66.4 122.5 62.4 122.5 55.6 C 122.5 48.8 127.4 44.8 133.8 44.8 C 137.3 44.8 140.5 46.8 141.9 48.9 L 141.9 62.3 Z M 157.4 36.8 L 167 36.8 L 167 74.4 L 157.4 74.4 L 157.4 36.8 Z M 300.8 35.8 C 294.2 35.8 291.1 39.8 291.1 39.8 L 291.1 18.7 L 281.5 18.7 L 281.5 74.4 C 281.5 74.4 288.9 74.4 289.6 74.4 C 290.4 74.4 291 73.7 291 73 L 291 71.3 L 291 71.3 C 291 71.3 294.1 75.4 300.7 75.4 C 311.6 75.4 320.1 67 320.1 55.6 C 320.1 44.2 311.6 35.8 300.8 35.8 Z M 299.2 66.3 C 295.5 66.3 292.6 64.4 291.1 62.2 L 291.1 48.8 C 292.6 46.8 295.8 44.7 299.2 44.7 C 305.6 44.7 310.5 48.7 310.5 55.5 C 310.5 62.3 305.6 66.3 299.2 66.3 Z M 276.5 52.1 L 276.5 74.5 L 266.9 74.5 L 266.9 53.2 C 266.9 47 264.9 44.5 259.5 44.5 C 256.6 44.5 253.6 46 251.7 48.2 L 251.7 74.4 L 242.1 74.4 L 242.1 36.8 L 249.7 36.8 C 250.5 36.8 251.1 37.5 251.1 38.2 L 251.1 39.8 C 253.9 36.9 257.6 35.8 261.3 35.8 C 265.5 35.8 269 37 271.8 39.4 C 275.2 42.2 276.5 45.8 276.5 52.1 Z M 218.8 35.8 C 212.2 35.8 209.1 39.8 209.1 39.8 L 209.1 18.7 L 199.5 18.7 L 199.5 74.4 C 199.5 74.4 206.9 74.4 207.6 74.4 C 208.4 74.4 209 73.7 209 73 L 209 71.3 L 209 71.3 C 209 71.3 212.1 75.4 218.7 75.4 C 229.6 75.4 238.1 67 238.1 55.6 C 238.2 44.2 229.7 35.8 218.8 35.8 Z M 217.2 66.3 C 213.5 66.3 210.6 64.4 209.1 62.2 L 209.1 48.8 C 210.6 46.8 213.8 44.7 217.2 44.7 C 223.6 44.7 228.5 48.7 228.5 55.5 C 228.5 62.3 223.6 66.3 217.2 66.3 Z M 191.2 35.8 C 194.1 35.8 195.6 36.3 195.6 36.3 L 195.6 45.2 C 195.6 45.2 187.6 42.5 182.6 48.2 L 182.6 74.5 L 173 74.5 L 173 36.8 C 173 36.8 180.4 36.8 181.1 36.8 C 181.9 36.8 182.5 37.5 182.5 38.2 L 182.5 39.8 C 184.3 37.7 188.2 35.8 191.2 35.8 Z M 91.5 71 C 91 69.8 90.5 68.5 90 67.4 C 89.2 65.6 88.4 63.9 87.7 62.3 L 87.6 62.2 C 80.7 47.2 73.3 32 65.5 17 L 65.2 16.4 C 64.4 14.9 63.6 13.3 62.8 11.7 C 61.8 9.9 60.8 8 59.2 6.2 C 56 2.2 51.4 0 46.5 0 C 41.5 0 37 2.2 33.7 6 C 32.2 7.8 31.1 9.7 30.1 11.5 C 29.3 13.1 28.5 14.7 27.7 16.2 L 27.4 16.8 C 19.7 31.8 12.2 47 5.3 62 L 5.2 62.2 C 4.5 63.8 3.7 65.5 2.9 67.3 C 2.4 68.4 1.9 69.6 1.4 70.9 C 0.1 74.6 -0.3 78.1 0.2 81.7 C 1.3 89.2 6.3 95.5 13.2 98.3 C 15.8 99.4 18.5 99.9 21.3 99.9 C 22.1 99.9 23.1 99.8 23.9 99.7 C 27.2 99.3 30.6 98.2 33.9 96.3 C 38 94 41.9 90.7 46.3 85.9 C 50.7 90.7 54.7 94 58.7 96.3 C 62 98.2 65.4 99.3 68.7 99.7 C 69.5 99.8 70.5 99.9 71.3 99.9 C 74.1 99.9 76.9 99.4 79.4 98.3 C 86.4 95.5 91.3 89.1 92.4 81.7 C 93.2 78.2 92.8 74.7 91.5 71 Z M 46.4 76.2 C 41 69.4 37.5 63 36.3 57.6 C 35.8 55.3 35.7 53.3 36 51.5 C 36.2 49.9 36.8 48.5 37.6 47.3 C 39.5 44.6 42.7 42.9 46.4 42.9 C 50.1 42.9 53.4 44.5 55.2 47.3 C 56 48.5 56.6 49.9 56.8 51.5 C 57.1 53.3 57 55.4 56.5 57.6 C 55.3 62.9 51.8 69.3 46.4 76.2 Z M 86.3 80.9 C 85.6 86.1 82.1 90.6 77.2 92.6 C 74.8 93.6 72.2 93.9 69.6 93.6 C 67.1 93.3 64.6 92.5 62 91 C 58.4 89 54.8 85.9 50.6 81.3 C 57.2 73.2 61.2 65.8 62.7 59.2 C 63.4 56.1 63.5 53.3 63.2 50.7 C 62.8 48.2 61.9 45.9 60.5 43.9 C 57.4 39.4 52.2 36.8 46.4 36.8 C 40.6 36.8 35.4 39.5 32.3 43.9 C 30.9 45.9 30 48.2 29.6 50.7 C 29.2 53.3 29.3 56.2 30.1 59.2 C 31.6 65.8 35.7 73.3 42.2 81.4 C 38.1 86 34.4 89.1 30.8 91.1 C 28.2 92.6 25.7 93.4 23.2 93.7 C 20.5 94 17.9 93.6 15.6 92.7 C 10.7 90.7 7.2 86.2 6.5 81 C 6.2 78.5 6.4 76 7.4 73.2 C 7.7 72.2 8.2 71.2 8.7 70 C 9.4 68.4 10.2 66.7 11 65 L 11.1 64.8 C 18 49.9 25.4 34.7 33.1 19.9 L 33.4 19.3 C 34.2 17.8 35 16.2 35.8 14.7 C 36.6 13.1 37.5 11.6 38.6 10.3 C 40.7 7.9 43.5 6.6 46.6 6.6 C 49.7 6.6 52.5 7.9 54.6 10.3 C 55.7 11.6 56.6 13.1 57.4 14.7 C 58.2 16.2 59 17.8 59.8 19.3 L 60.1 19.9 C 63.936 27.421 67.722 35.019 71.417 42.615 C 75.043 50.069 78.583 57.521 82 64.9 L 82 65 C 82.8 66.6 83.5 68.4 84.3 70 C 84.8 71.2 85.3 72.2 85.6 73.2 C 86.4 75.8 86.7 78.3 86.3 80.9 Z"/>
</svg>
