<svg id="Livello_2" data-name="Livello 2" xmlns="http://www.w3.org/2000/svg" viewBox="0 0 195.48 195.48"><defs><style>.cls-1,.cls-2{fill:none;stroke:#000;stroke-width:4px;}.cls-1{stroke-linecap:round;stroke-linejoin:round;}.cls-2{stroke-miterlimit:10;}</style></defs><title>Tavola disegno 13</title><path class="cls-1" d="M81.13,57.59h35.15a0,0,0,0,1,0,0v97.89a4.5,4.5,0,0,1-4.5,4.5H85.63a4.5,4.5,0,0,1-4.5-4.5V57.59A0,0,0,0,1,81.13,57.59Z"/><path class="cls-1" d="M99,57.59H83.73c-2.72,0-4.42-2.39-3.06-4.31L88.32,42.5,99,27.41,109.75,42.5l7.65,10.78c1.36,1.92-.34,4.31-3.06,4.31Z"/><path class="cls-1" d="M91,72.48a7.92,7.92,0,1,1,15.84,0"/><rect class="cls-1" x="91.04" y="72.48" width="15.84" height="15.84"/><rect class="cls-2" x="2" y="2" width="191.48" height="191.48" rx="16.25" ry="16.25"/></svg>
