<?xml version="1.0" encoding="utf-8"?>
<svg version="1.1" x="0px" y="0px" viewBox="-15 -17 118 118" overflow="visible" enable-background="new -5.46 -6.23 100 100" width="500px" height="500px" xmlns="http://www.w3.org/2000/svg" style="width: 100%; height: 100%;">
  <path d="M88.57,51.71c-0.01-0.04-0.01-0.08-0.02-0.11c-0.02-0.06-0.06-0.12-0.1-0.17c-0.02-0.02-0.02-0.05-0.04-0.07  c-0.06-0.07-0.14-0.13-0.22-0.17c0,0,0,0,0,0l-16.44-8.27c-0.08-0.04-0.16-0.06-0.24-0.07l-11.35-1.48V30.49v-1.49V19.6  c0-0.22-0.1-0.42-0.25-0.55c-0.02-0.08-0.04-0.16-0.09-0.24c0,0-10.81-18.54-11.03-18.69c-0.35-0.23-0.81-0.13-1.04,0.22  L35.63,19.01c-0.1,0.15-0.13,0.33-0.11,0.5c0,0.03-0.02,0.06-0.02,0.09v8.71v0.68v9.16l-23.23-3.02c-0.02,0-0.04,0-0.06,0  c-0.06,0-0.13,0-0.19,0.01c-0.03,0.01-0.06,0.02-0.1,0.03c-0.05,0.02-0.1,0.04-0.15,0.08c-0.03,0.02-0.06,0.03-0.08,0.05  c-0.01,0.01-0.02,0.01-0.03,0.02L0.25,45.66C0.09,45.8,0,46,0,46.22v30.15c0,0.35,0.25,0.66,0.6,0.73l27.49,5.78  c0.05,0.01,0.1,0.02,0.15,0.02c0.01,0,0.03,0,0.04,0l59.6-3.08c0.4-0.02,0.71-0.35,0.71-0.75V51.85  C88.59,51.8,88.58,51.76,88.57,51.71z M58.66,42.68V44L47.7,42.57v-1.32v-1.51V27.51l10.96,2.1v0.87v10.68V42.68z M50.3,26.49v-4.64  c0-0.22,0.18-0.41,0.41-0.41s0.41,0.18,0.41,0.41v4.79L50.3,26.49z M55.34,27.45v-5.13c0-0.22,0.18-0.41,0.41-0.41  s0.41,0.18,0.41,0.41v5.28L55.34,27.45z M58.66,28.08l-1-0.19v-5.57c0-1.05-0.86-1.91-1.91-1.91s-1.91,0.86-1.91,1.91v4.84  l-1.23-0.23v-5.08c0-1.05-0.86-1.91-1.91-1.91s-1.91,0.86-1.91,1.91v4.35l-1.11-0.21v-8.14l10.96,2.02V28.08z M49.03,3.52  l8.66,14.63l-10.1-1.86L49.03,3.52z M47.53,3.43l-1.6,12.85l-8.12,2.14L47.53,3.43z M37.01,20.18l9.18-2.42v8.09l-9.18,1.57V20.18z   M37.01,28.99v-0.05l9.18-1.57v12.17v1.51v1.05l-3.74-1.54l-5.39-2.21l-0.05-0.02V28.99z M27.49,81.22L1.5,75.75V46.55l10.79-9.76  l15.2,8.5V81.22z M15.95,37.12l20.73,2.7l9.99,4.1c0.03,0.01,0.06,0.01,0.09,0.02c0.03,0.01,0.06,0.03,0.1,0.03l12.46,1.63  c0.03,0,0.06,0.01,0.1,0.01c0.18,0,0.36-0.07,0.49-0.19c0.16-0.14,0.26-0.35,0.26-0.56v-1.98l11.03,1.44l12.52,6.3l-55.23-6.48  L15.95,37.12z M87.09,78.35l-58.1,3V45.7l58.1,6.82V78.35z"/>
  <path d="M45.06,53.39c-1.45,0-3.14,1.09-3.14,4.17v14.33c0,0.2,0.08,0.4,0.23,0.54c0.14,0.14,0.33,0.21,0.52,0.21  c0.01,0,0.01,0,0.02,0l4.79-0.12c0.41-0.01,0.73-0.34,0.73-0.75V56.54C48.21,54.8,46.8,53.39,45.06,53.39z M45.06,54.89  c0.91,0,1.64,0.74,1.64,1.64v6.63h-3.29v-5.61C43.42,55.86,44.02,54.89,45.06,54.89z M43.42,71.12v-6.44h3.29v6.36L43.42,71.12z"/>
  <path d="M62.32,55.03c-1.73,0-3.14,1.41-3.14,3.14v13.2c0,0.2,0.08,0.4,0.23,0.54c0.14,0.14,0.33,0.21,0.52,0.21  c0.01,0,0.01,0,0.02,0L64.73,72c0.41-0.01,0.73-0.34,0.73-0.75V58.17C65.46,56.44,64.05,55.03,62.32,55.03z M62.32,56.53  c0.91,0,1.64,0.74,1.64,1.64v5h-3.29v-5C60.67,57.26,61.41,56.53,62.32,56.53z M60.67,70.6v-5.93h3.29v5.85L60.67,70.6z"/>
  <path d="M80.56,59.26c0-1.73-1.41-3.14-3.14-3.14s-3.14,1.41-3.14,3.14l0,11.72c0,0.2,0.08,0.4,0.23,0.54  c0.14,0.14,0.33,0.21,0.52,0.21c0.01,0,0.01,0,0.02,0l4.79-0.12c0.41-0.01,0.73-0.34,0.73-0.75L80.56,59.26z M77.42,57.61  c0.91,0,1.64,0.74,1.64,1.64l0,4.43h-3.29l0-4.43C75.78,58.35,76.51,57.61,77.42,57.61z M75.78,70.21l0-5.02h3.29l0,4.94  L75.78,70.21z"/>
  <path d="M14.5,49.39c-1.45,0-3.14,1.09-3.14,4.16v13.24c0,0.36,0.25,0.66,0.6,0.73l4.79,0.97c0.05,0.01,0.1,0.02,0.15,0.02  c0.17,0,0.34-0.06,0.47-0.17c0.17-0.14,0.28-0.36,0.28-0.58V52.53C17.64,50.8,16.23,49.39,14.5,49.39z M14.5,50.89  c0.91,0,1.64,0.74,1.64,1.64v6.21l-3.29-0.4v-4.79C12.85,51.86,13.45,50.89,14.5,50.89z M12.85,66.18v-6.32l3.29,0.4v6.59  L12.85,66.18z"/>
</svg>
