<?xml version="1.0" encoding="utf-8"?>
<svg width="500px" height="500px" viewBox="-95.05799865722656 -96.96600341796875 693 693" xmlns="http://www.w3.org/2000/svg" style="width: 100%; height: 100%;">
  <g transform="matrix(15.357566, 0, 0, 15.387293, 4.942374, 4.572696)">
    <g>
      <path d="M24.8,32H7.3c-0.4,0-0.8-0.3-0.8-0.8V13.3c0-0.2,0-0.3,0.1-0.4l8.8-12.6c0.3-0.4,1-0.4,1.2,0l8.8,12.6    c0.1,0.1,0.1,0.3,0.1,0.4v17.9C25.5,31.7,25.2,32,24.8,32z M8,30.5h16V13.6L16,2.1L8,13.6V30.5z"/>
    </g>
    <g>
      <path d="M7.3,32H0.8C0.3,32,0,31.7,0,31.2V16c0-0.4,0.3-0.8,0.8-0.8h6.5C7.7,15.2,8,15.6,8,16v15.3C8,31.7,7.7,32,7.3,32z     M1.5,30.5h5V16.7h-5V30.5z"/>
    </g>
    <g>
      <path d="M31.3,32h-6.5c-0.4,0-0.8-0.3-0.8-0.8V16c0-0.4,0.3-0.8,0.8-0.8h6.5c0.4,0,0.8,0.3,0.8,0.8v15.3C32,31.7,31.7,32,31.3,32z     M25.5,30.5h5V16.7h-5V30.5z"/>
    </g>
    <g>
      <path d="M19.3,32h-6.5c-0.4,0-0.8-0.3-0.8-0.8v-6.5c0-0.4,0.3-0.8,0.8-0.8h6.5c0.4,0,0.8,0.3,0.8,0.8v6.5C20,31.7,19.7,32,19.3,32    z M13.5,30.5h5v-5h-5V30.5z"/>
    </g>
    <g>
      <g>
        <path d="M16,16.5c-0.4,0-0.8-0.3-0.8-0.8V9.2c0-0.4,0.3-0.8,0.8-0.8s0.8,0.3,0.8,0.8v6.5C16.8,16.2,16.4,16.5,16,16.5z"/>
      </g>
      <g>
        <path d="M18.3,12h-4.6c-0.4,0-0.8-0.3-0.8-0.8s0.3-0.8,0.8-0.8h4.6c0.4,0,0.8,0.3,0.8,0.8S18.7,12,18.3,12z"/>
      </g>
    </g>
  </g>
</svg>
