<?xml version="1.0" encoding="utf-8"?>
<svg version="1.1" x="0px" y="0px" viewBox="7 7 86 86" enable-background="new 0 0 100 100" width="500px" height="500px" xmlns="http://www.w3.org/2000/svg" style="width: 100%; height: 100%;">
  <path d="M70.654,41.763C70.884,40.508,71,39.246,71,38c0-11.58-9.421-21-21-21s-21,9.42-21,21c0,1.681,0.213,3.382,0.635,5.066  C26.681,45.547,25,49.131,25,53c0,7.168,5.832,13,13,13c2.868,0,5.635-0.955,7.895-2.691l1.014,1.015l-0.908,17.626  c-0.014,0.273,0.085,0.541,0.274,0.74C46.464,82.887,46.726,83,47,83h6c0.273,0,0.536-0.113,0.725-0.313  c0.189-0.198,0.289-0.465,0.274-0.739l-0.908-17.626l6.16-6.159C60.941,59.361,62.919,60,65,60c5.514,0,10-4.486,10-10  C75,46.712,73.352,43.619,70.654,41.763z M51.361,63.223c-0.199,0.2-0.307,0.477-0.291,0.758L51.947,81h-3.896l0.877-17.02  c0.015-0.282-0.092-0.558-0.292-0.758l-7.989-7.988l6.993,4.449c0.3,0.191,0.68,0.209,0.997,0.045  c0.316-0.164,0.521-0.483,0.539-0.84L49.952,43h0.096l0.769,15.752c0.018,0.365,0.233,0.691,0.563,0.852  c0.328,0.16,0.719,0.125,1.018-0.086l9.354-6.682L51.361,63.223z M65,58c-1.546,0-3.012-0.459-4.297-1.29l5.004-5.003  c0.392-0.392,0.39-1.025,0-1.414l-1-1c-0.346-0.347-0.893-0.39-1.288-0.107l-10.694,7.639l-0.726-14.874  C51.973,41.418,51.533,41,51,41h-2c-0.533,0-0.973,0.418-0.999,0.951l-0.737,15.122l-7.727-4.917  c-0.395-0.252-0.911-0.195-1.244,0.137l-1,1c-0.391,0.39-0.391,1.024,0,1.414l7.18,7.18C42.602,63.256,40.338,64,38,64  c-6.065,0-11-4.936-11-11c0-3.463,1.594-6.658,4.372-8.763c0.328-0.249,0.471-0.673,0.358-1.069C31.246,41.451,31,39.712,31,38  c0-10.477,8.523-19,19-19c10.477,0,19,8.523,19,19c0,1.331-0.146,2.686-0.438,4.027c-0.092,0.422,0.099,0.855,0.472,1.074  C71.48,44.535,73,47.179,73,50C73,54.411,69.411,58,65,58z"/>
</svg>
