<svg id="Livello_2" data-name="Livello 2" xmlns="http://www.w3.org/2000/svg" viewBox="0 0 195.48 195.48"><defs><style>.cls-1,.cls-2{fill:none;stroke:#000;stroke-width:4px;}.cls-1{stroke-linecap:round;stroke-linejoin:round;}.cls-2{stroke-miterlimit:10;}</style></defs><title>Tavola disegno 6</title><path class="cls-1" d="M147.14,88.73v54.71c0,1.46-1.62,2.64-3.61,2.64H53.62c-2,0-3.61-1.18-3.61-2.64V88.73"/><path class="cls-1" d="M70.67,76.24c0,6.33-6.25,11.47-14,11.47s-14-5.14-14-11.47"/><path class="cls-1" d="M98.57,76.24c0,6.33-6.24,11.47-13.95,11.47s-14-5.14-14-11.47"/><path class="cls-1" d="M126.48,76.24c0,6.33-6.25,11.47-14,11.47s-14-5.14-14-11.47"/><path class="cls-1" d="M154.39,76.65c0,6.33-5.62,11.06-13.33,11.06s-14-5.14-14-11.47"/><polyline class="cls-1" points="42.76 76.25 51.11 44.48 142.52 44.48 154.39 76.25"/><rect class="cls-1" x="56.71" y="97.46" width="43.66" height="32.23" rx="4.32" ry="4.32"/><rect class="cls-1" x="108.81" y="113.58" width="21.88" height="32.23"/><rect class="cls-2" x="2" y="2" width="191.48" height="191.48" rx="16.25" ry="16.25"/></svg>