<?xml version="1.0" encoding="utf-8"?>
<svg viewBox="-5.019999980926514 -5 42 42" x="0px" y="0px" width="500px" height="500px" xmlns="http://www.w3.org/2000/svg" style="width: 100%; height: 100%;">
  <title>summer holiday travel picnic island beach</title>
  <g data-name="infographic info graph infochart pencetage chart">
    <path d="M16,21c-.72,0-1.42,0-2.11.1-1-1.47-2.55-7.76-2.84-11.88a11.14,11.14,0,0,1,5.12,4.34l1.66-1.11a14.74,14.74,0,0,0-4-4,9,9,0,0,1,6.47,2.3l1.41-1.41C19.06,6.65,15,6,11.71,6.57,12.85,4.56,15,3,20,3V1C13.63,1,11,3.42,9.73,6a16.69,16.69,0,0,0-7.42-5l-.63,1.9a15,15,0,0,1,5,2.86,9.32,9.32,0,0,0-5.17.3l.89,1.79a7.6,7.6,0,0,1,3.93-.13,8.94,8.94,0,0,0-5.35,6L3,14.24a7.13,7.13,0,0,1,5.28-5c-2.07,4.64-2,10.05-.54,13.23C3.64,24.06,1,26.81,1,30v1H31V30C31,25,24.41,21,16,21ZM9.36,11.94a39.08,39.08,0,0,0,2.44,9.41,22,22,0,0,0-2.17.48C8.45,19.6,8.24,15.65,9.36,11.94ZM3.14,29c.93-3.34,6.44-6,12.86-6s11.93,2.66,12.86,6Z"/>
  </g>
</svg>
