<svg id="Livello_2" data-name="Livello 2" xmlns="http://www.w3.org/2000/svg" viewBox="0 0 195.48 195.48"><defs><style>.cls-1,.cls-2{fill:none;stroke:#000;stroke-width:4px;}.cls-1{stroke-linecap:round;stroke-linejoin:round;}.cls-2{stroke-miterlimit:10;}</style></defs><title>Tavola disegno 21</title><path class="cls-1" d="M30.89,90.06a9.75,9.75,0,0,0,9.61-.53c1.38-.93,2.28-2.14,1.63-3.64,0,0-.89-2.25-4-1.94,0,0,3.34-5.9,15.11,1.4,2.08,1.29,6.12,3.59,8.21,4.69A9.45,9.45,0,0,0,71,89.51c1.38-.92,2.28-2.13,1.62-3.64,0,0-.88-2.25-4-1.93,0,0,4.06-6.94,15.12,1.39,10.59,8,16.27,5.36,16.27,5.36"/><path class="cls-1" d="M92.42,90.22c3.38,1.28,6.76,1.37,9.61-.53,1.38-.93,2.28-2.14,1.63-3.64,0,0-.89-2.25-4-1.94,0,0,4.16-7.08,15.11,1.4,10.62,8.21,20.33,5.31,20.33,5.31"/><path class="cls-1" d="M63.81,111.06a9.71,9.71,0,0,0,9.6-.53c1.39-.93,2.29-2.14,1.63-3.64,0,0-.88-2.25-4-1.93,0,0,3.35-5.9,15.12,1.39,2.08,1.29,6.11,3.6,8.2,4.7a9.49,9.49,0,0,0,9.61-.53c1.38-.93,2.28-2.14,1.63-3.64,0,0-.88-2.25-4-1.94,0,0,4.06-6.94,15.11,1.4,10.59,8,16.28,5.36,16.28,5.36"/><path class="cls-1" d="M125.34,111.22c3.37,1.29,6.75,1.37,9.6-.53,1.39-.93,2.29-2.14,1.63-3.64,0,0-.88-2.25-4-1.93,0,0,4.17-7.08,15.12,1.39,10.61,8.21,20.32,5.32,20.32,5.32"/><rect class="cls-2" x="2" y="2" width="191.48" height="191.48" rx="16.25" ry="16.25"/></svg>