<svg id="Livello_2" data-name="Livello 2" xmlns="http://www.w3.org/2000/svg" viewBox="0 0 195.48 195.48"><defs><style>.cls-1,.cls-2{fill:none;stroke:#000;stroke-width:4px;}.cls-1{stroke-linecap:round;stroke-linejoin:round;}.cls-2{stroke-miterlimit:10;}</style></defs><title>Tavola disegno 18</title><polyline class="cls-1" points="25.89 78.7 46.13 78.7 46.13 113.49"/><polyline class="cls-1" points="172.18 78.7 151.93 78.7 151.93 113.49"/><path class="cls-1" d="M46,95.74a9.72,9.72,0,0,0,9.61-.53c1.38-.92,2.28-2.13,1.63-3.64,0,0-.89-2.25-4-1.93,0,0,3.35-5.9,15.11,1.39,2.08,1.29,6.12,3.6,8.21,4.7a9.49,9.49,0,0,0,9.61-.53c1.38-.93,2.28-2.14,1.62-3.64,0,0-.88-2.25-4-1.93,0,0,4.06-6.94,15.12,1.39,10.59,8,16.27,5.36,16.27,5.36"/><path class="cls-1" d="M107.57,95.9c3.38,1.29,6.76,1.38,9.61-.53,1.38-.93,2.28-2.14,1.63-3.64,0,0-.88-2.25-4-1.93,0,0,4.16-7.08,15.11,1.39,10.62,8.21,20.33,5.32,20.33,5.32"/><rect class="cls-1" x="33.33" y="78.7" width="12.8" height="36.74"/><rect class="cls-1" x="151.82" y="78.7" width="12.8" height="36.74"/></svg>
