<svg id="Livello_2" data-name="Livello 2" xmlns="http://www.w3.org/2000/svg" viewBox="0 0 195.48 195.48"><defs><style>.cls-1,.cls-2{fill:none;stroke:#000;stroke-width:4px;}.cls-1{stroke-linecap:round;stroke-linejoin:round;}.cls-2{stroke-miterlimit:10;}</style></defs><title>Tavola disegno 7</title><path class="cls-1" d="M32.25,146a13.45,13.45,0,0,0,13.28-.73c1.92-1.28,3.16-3,2.26-5,0,0-1.23-3.11-5.57-2.67,0,0,4.64-8.16,20.91,1.92,2.88,1.79,8.46,5,11.35,6.5a13.12,13.12,0,0,0,13.29-.73c1.91-1.28,3.16-3,2.25-5,0,0-1.22-3.11-5.56-2.67,0,0,5.62-9.6,20.91,1.93,14.64,11,22.51,7.41,22.51,7.41"/><path class="cls-1" d="M117.35,146.25c4.67,1.78,9.35,1.9,13.29-.74,1.91-1.28,3.16-2.95,2.25-5,0,0-1.22-3.11-5.56-2.67,0,0,4.56-8.05,20.91,1.92,9.46,5.78,17.28,4.79,17.28,4.79"/><path class="cls-1" d="M32.25,146c0-27.1,25.33-48.83,57.39-48.83s54.65,15.2,58.6,42.53"/><path class="cls-1" d="M109.82,55.45a7.21,7.21,0,0,0-5.07-6.89A7.22,7.22,0,0,0,91,48.62a7.22,7.22,0,0,0,0,13.67,7.22,7.22,0,0,0,13.73.06A7.22,7.22,0,0,0,109.82,55.45Z"/><path class="cls-1" d="M84.83,68.61a7.22,7.22,0,0,0-5.08-6.89A7.22,7.22,0,0,0,66,61.78a7.22,7.22,0,0,0,0,13.67,7.22,7.22,0,0,0,13.73.06A7.22,7.22,0,0,0,84.83,68.61Z"/><line class="cls-1" x1="97.89" y1="67.3" x2="97.89" y2="102.62"/><line class="cls-1" x1="73.76" y1="80.46" x2="73.76" y2="98.24"/><path class="cls-1" d="M129.2,80.46a7.22,7.22,0,0,0-5.08-6.89,7.21,7.21,0,0,0-13.72.06,7.21,7.21,0,0,0,0,13.66,7.21,7.21,0,0,0,13.72.06A7.22,7.22,0,0,0,129.2,80.46Z"/><line class="cls-1" x1="117.27" y1="92.31" x2="117.27" y2="110.08"/><rect class="cls-2" x="2" y="2" width="191.48" height="191.48" rx="16.25" ry="16.25"/></svg>