<svg id="Livello_2" data-name="Livello 2" xmlns="http://www.w3.org/2000/svg" viewBox="0 0 195.48 195.48"><defs><style>.cls-1,.cls-2{fill:none;stroke:#000;stroke-width:4px;}.cls-1{stroke-linecap:round;stroke-linejoin:round;}.cls-2{stroke-miterlimit:10;}</style></defs><title>Tavola disegno 4</title><path class="cls-1" d="M66.62,120a8.73,8.73,0,0,0,8.65-.48c1.25-.83,2.06-1.92,1.47-3.28a3.31,3.31,0,0,0-3.63-1.74s3-5.31,13.62,1.26c1.87,1.16,5.51,3.24,7.39,4.23a8.54,8.54,0,0,0,8.66-.48c1.24-.83,2-1.92,1.46-3.28a3.29,3.29,0,0,0-3.62-1.74s3.66-6.25,13.62,1.26c9.54,7.18,14.66,4.82,14.66,4.82"/><path class="cls-1" d="M128.48,120.29a30.41,30.41,0,0,0-60.82,0h-32V96.35s17.61-3.74,25.61-12.47S78.87,66.34,97.67,66.34"/><path class="cls-1" d="M128.75,120.29h32V96.35s-17.6-3.74-25.61-12.47-18.6-17.54-37.41-17.54"/></svg>
