<svg id="Livello_2" data-name="Livello 2" xmlns="http://www.w3.org/2000/svg" viewBox="0 0 195.48 195.48"><defs><style>.cls-1,.cls-2{fill:none;stroke:#000;stroke-width:4px;}.cls-1{stroke-linecap:round;stroke-linejoin:round;}.cls-2{stroke-miterlimit:10;}</style></defs><title>Tavola disegno 8</title><path class="cls-1" d="M46.62,135.94a12.8,12.8,0,0,0,11.74-.55c1.68-1,2.78-2.39,2-4.09,0,0-1.09-2.53-4.92-2.19,0,0,4.06-6.61,18.47,1.64,2.55,1.45,7.49,4.07,10.05,5.31a12.43,12.43,0,0,0,11.74-.55c1.68-1,2.78-2.39,2-4.08,0,0-1.09-2.54-4.92-2.19,0,0,4.93-7.78,18.47,1.63,13,9,19.91,6.09,19.91,6.09"/><path class="cls-1" d="M121.8,136.39c4.13,1.47,8.26,1.58,11.74-.55,1.68-1,2.78-2.39,2-4.08,0,0-1.09-2.53-4.92-2.19,0,0,5.06-7.94,18.47,1.63a35.47,35.47,0,0,0,12.39,5.74"/><path class="cls-1" d="M57.74,126.22c0-11.83,19.18-21.42,42.84-21.42s42.85,9.59,42.85,21.42"/><path class="cls-1" d="M125.72,61.48a7.51,7.51,0,0,0-5.28-7.18,7.51,7.51,0,0,0-14.29.06,7.52,7.52,0,0,0,0,14.23,7.51,7.51,0,0,0,14.29.06A7.51,7.51,0,0,0,125.72,61.48Z"/><path class="cls-1" d="M93.45,74a7.52,7.52,0,0,0-5.28-7.18,7.52,7.52,0,0,0-14.29.07,7.51,7.51,0,0,0,0,14.22,7.52,7.52,0,0,0,14.29.07A7.52,7.52,0,0,0,93.45,74Z"/><line class="cls-1" x1="113.31" y1="73.81" x2="113.31" y2="104.8"/><line class="cls-1" x1="81.04" y1="86.32" x2="81.04" y2="106.62"/><rect class="cls-2" x="2" y="2" width="191.48" height="191.48" rx="16.25" ry="16.25"/></svg>