<?xml version="1.0" encoding="utf-8"?>
<svg version="1.1" x="0px" y="0px" viewBox="0 1 100 100" enable-background="new 0 0 100 100" width="500px" height="500px" xmlns="http://www.w3.org/2000/svg" style="width: 100%; height: 100%;">
  <path d="M88.05,58.572c-1.311,1.146-2.444,2.139-3.654,2.139c-3.061,0-3.824-1.324-4.633-2.729c-0.116-0.202-0.237-0.41-0.366-0.614  c1.34-0.798,2.44-1.729,3.134-2.815c3.627-5.68,2.352-10.212,2.314-10.405l-0.037-0.148c-0.069-0.235-1.168-3.81,2.94-6.298  c-7.199,0.443-5.918,7.093-5.918,7.093c0.02,0.133,0.086,0.554,0.107,1.167c-1.713,0.817-7.291,3.116-17.797,4.25L51.915,39.979  c-0.495-0.414-1.229-0.349-1.644,0.146c-0.413,0.493-0.348,1.23,0.146,1.643l10.447,8.745c-2.863,0.218-6.035,0.349-9.539,0.349  c-18.003,0-27.371-3.446-30.23-4.727c0.075-0.721,0.188-1.191,0.209-1.341c0.831-2.859,0.553-10.409-4.394-13.365  c-0.17-0.097-1.745-1.466-4.659-1.466v7.187c1.949,0,3.007,0.487,3.135,0.551c1.621,0.982,2.43,2.134,2.813,3.183h-5.947v1.219h6.23  c0.108,1.032-0.123,1.792-0.154,1.896l-0.037,0.148c-0.007,0.035-0.058,0.217-0.119,0.522h-5.92v1.22h5.74  c-0.071,0.687-0.104,1.555-0.039,2.567h-5.701v1.219h5.822c0.212,1.536,0.666,3.311,1.549,5.232c1.095,2.382,3.95,3.942,7.164,4.967  c-0.697,0.501-1.371,0.838-2.07,0.838c-3.063,0-3.825-1.324-4.634-2.729c-0.771-1.336-1.644-2.853-4.479-2.853  c-3.191,0-5.373,1.909-7.127,3.443c-1.312,1.146-2.445,2.139-3.654,2.139v1.027c1.596,0,2.924-1.162,4.33-2.394  c1.709-1.495,3.646-3.188,6.451-3.188c2.242,0,2.837,1.03,3.59,2.338c0.875,1.521,1.867,3.244,5.523,3.244  c1.594,0,2.923-1.162,4.33-2.394c1.708-1.495,3.645-3.188,6.449-3.188c2.243,0,2.838,1.03,3.591,2.338  c0.875,1.521,1.868,3.244,5.522,3.244c1.596,0,2.924-1.162,4.33-2.394c1.709-1.495,3.645-3.188,6.451-3.188  c2.241,0,2.837,1.03,3.59,2.338c0.875,1.521,1.867,3.244,5.522,3.244c1.595,0,2.924-1.162,4.33-2.394  c0.411-0.359,0.837-0.732,1.284-1.088l13.75,11.509c0.495,0.413,1.23,0.348,1.644-0.146c0.413-0.494,0.348-1.229-0.145-1.645  L72.153,56.919c0.922-0.461,1.948-0.763,3.131-0.763c2.242,0,2.837,1.03,3.589,2.338c0.877,1.521,1.868,3.244,5.522,3.244  c1.596,0,2.924-1.162,4.331-2.394c1.709-1.495,3.644-3.188,6.451-3.188v-1.027C91.985,55.129,89.805,57.038,88.05,58.572z   M55.391,55.129c-3.192,0-5.373,1.909-7.127,3.443c-0.063,0.056-0.123,0.107-0.186,0.162h-7.65  c-0.158-0.243-0.305-0.496-0.451-0.753c-0.771-1.336-1.645-2.853-4.48-2.853c-2.455,0-4.313,1.13-5.837,2.352  c-3.462-0.83-6.425-2.09-7.238-3.86c-1.039-2.261-1.349-4.279-1.387-5.82C24.59,49.313,33.974,52.4,51.326,52.4  c4.199,0,7.93-0.181,11.227-0.476l6.763,5.66c-0.09,0.074-0.179,0.146-0.266,0.22c-2.634,0.543-5.275,0.872-7.342,0.93h-1.387  c-0.158-0.243-0.305-0.496-0.452-0.753C59.1,56.646,58.227,55.129,55.391,55.129z M71.305,56.207l-5.524-4.623  c8.688-1.061,13.804-2.891,16.094-3.893c-0.176,1.571-0.715,3.586-2.142,5.574c-0.536,0.745-1.545,1.442-2.837,2.071  c-0.457-0.13-0.984-0.207-1.611-0.207C73.743,55.129,72.439,55.576,71.305,56.207z"/>
</svg>
