<?xml version="1.0" encoding="utf-8"?>
<svg data-name="Layer 1" viewBox="-9.130000114440918 -7 118 118" x="0px" y="0px" width="500px" height="500px" xmlns="http://www.w3.org/2000/svg" style="width: 100%; height: 100%;">
  <title>129all</title>
  <path d="M94.13,33V20.79a10,10,0,0,0-10-10H15.87a10,10,0,0,0-10,10V33a2,2,0,0,0,2,2H10V87.21a2,2,0,0,0,2,2H88a2,2,0,0,0,2-2V35h2.13A2,2,0,0,0,94.13,33ZM72,85.21H56.35V66.27a7.82,7.82,0,0,1,15.65,0Zm14,0H76V66.27a11.82,11.82,0,0,0-23.65,0V85.21H14V35h6a10,10,0,0,0,9.94,8.9H70.09A10,10,0,0,0,80,35h6ZM59.36,24H70.09a6,6,0,0,1,6,6v3.84a6,6,0,0,1-6,6H29.91a6,6,0,0,1-6-6V30a6,6,0,0,1,6-6ZM90.13,31h-10V30a10,10,0,0,0-10-10H29.91a10,10,0,0,0-10,10V31h-10V20.79a6,6,0,0,1,6-6H84.13a6,6,0,0,1,6,6V31Z"/>
  <path d="M41.54,54.45H24.94a2,2,0,0,0-2,2V70.36a2,2,0,0,0,2,2H41.54a2,2,0,0,0,2-2V56.45A2,2,0,0,0,41.54,54.45Zm-2,13.91H26.94V58.45H39.54Z"/>
</svg>
