<?xml version="1.0" encoding="utf-8"?>
<svg data-name="Layer 1" viewBox="-8 -8.420000076293945 116 116" x="0px" y="0px" xmlns="http://www.w3.org/2000/svg" style="width: 100%; height: 100%;">
  <title>82 all</title>
  <path d="M17.47,66.54h3.67a2,2,0,1,0,0-4H17.47a2,2,0,0,0,0,4Z"/>
  <path d="M21.13,72.54H17.47a2,2,0,0,0,0,4h3.67a2,2,0,1,0,0-4Z"/>
  <path d="M21.13,82.54H17.47a2,2,0,0,0,0,4h3.67a2,2,0,1,0,0-4Z"/>
  <path d="M37.3,41.58a2,2,0,0,0,4,0V35.25a2,2,0,1,0-4,0Z"/>
  <path d="M49.3,43.58a2,2,0,0,0,2-2V35.25a2,2,0,1,0-4,0v6.33A2,2,0,0,0,49.3,43.58Z"/>
  <path d="M59.3,43.58a2,2,0,0,0,2-2V35.25a2,2,0,1,0-4,0v6.33A2,2,0,0,0,59.3,43.58Z"/>
  <path d="M39.3,53.25a2,2,0,0,0-2,2v6.33a2,2,0,0,0,4,0V55.25A2,2,0,0,0,39.3,53.25Z"/>
  <path d="M49.3,63.58a2,2,0,0,0,2-2V55.25a2,2,0,1,0-4,0v6.33A2,2,0,0,0,49.3,63.58Z"/>
  <path d="M59.3,63.58a2,2,0,0,0,2-2V55.25a2,2,0,1,0-4,0v6.33A2,2,0,0,0,59.3,63.58Z"/>
  <path d="M39.3,73.25a2,2,0,0,0-2,2v6.33a2,2,0,0,0,4,0V75.25A2,2,0,0,0,39.3,73.25Z"/>
  <path d="M49.3,83.58a2,2,0,0,0,2-2V75.25a2,2,0,0,0-4,0v6.33A2,2,0,0,0,49.3,83.58Z"/>
  <path d="M59.3,83.58a2,2,0,0,0,2-2V75.25a2,2,0,0,0-4,0v6.33A2,2,0,0,0,59.3,83.58Z"/>
  <path d="M50,2.58a2,2,0,0,0-2,2V19.42H37.65a10,10,0,0,0-10,10V52.79h-11a10,10,0,0,0-10,10V93.42H5a2,2,0,0,0,0,4H95a2,2,0,0,0,0-4H92.35v-40a6,6,0,0,0-6-6h-4.1v-5a6,6,0,0,0-6-6h-5.6v-7a10,10,0,0,0-10-10H52V4.58A2,2,0,0,0,50,2.58ZM10.65,62.79a6,6,0,0,1,6-6h11V93.42h-17Zm65.6-22.37a2,2,0,0,1,2,2v7a2,2,0,0,0,2,2h6.1a2,2,0,0,1,2,2v40H70.65v-7.5H78.8a2,2,0,0,0,0-4H70.65v-6H78.8a2,2,0,0,0,0-4H70.65v-6H78.8a2,2,0,0,0,0-4H70.65V40.42Zm-9.6-11v64h-35v-64a6,6,0,0,1,6-6h23A6,6,0,0,1,66.65,29.42Z"/>
</svg>
