<?xml version="1.0" encoding="utf-8"?>
<svg version="1.1" x="0px" y="0px" viewBox="-22 -2 1050 1050" enable-background="new 0 0 1000 1000" width="500px" height="500px" xmlns="http://www.w3.org/2000/svg" style="width: 100%; height: 100%;">
  <path fill="#000000" d="M971.9,620.7c0-0.1,0-0.2-0.1-0.3l-6.5-23.5c1.4,0.3,1.6,0.3,1.7,0.3c2.8,0,5-2.2,5-5c0-2.5-1.8-4.6-4.3-4.9  c0,0-0.1,0-0.1,0v-81.4c0-0.1,0-0.1,0-0.2c0-0.1,0-0.2,0-0.3c0-0.2,0-0.4-0.1-0.6c0-0.1-0.1-0.2-0.1-0.3c-0.1-0.2-0.1-0.4-0.2-0.5  c0-0.1-0.1-0.2-0.1-0.3c-0.1-0.2-0.2-0.4-0.4-0.6c0-0.1-0.1-0.1-0.1-0.2c-0.2-0.2-0.4-0.5-0.6-0.7c0,0,0,0,0,0l-29.6-26.3  c-0.6-0.5-1.3-0.9-2-1.1l-360.4-96.6c2.6-0.1,4.7-2.3,4.7-5c0-2.8-2.2-5-5-5h-3.5c-0.3-1.4-1.2-2.7-2.7-3.4l-66.6-32.5  c-1.4-0.7-3-0.7-4.4,0l-66.6,32.5c-1.4,0.7-2.4,2-2.7,3.4h-1c-2.8,0-5,2.2-5,5c0,2.7,2.1,4.8,4.7,5L65.5,474.6  c-0.8,0.2-1.4,0.6-2,1.1l-29.6,26.3c0,0,0,0,0,0c-0.2,0.2-0.4,0.4-0.6,0.7c0,0.1-0.1,0.1-0.1,0.2c-0.1,0.2-0.3,0.4-0.4,0.6  c0,0.1-0.1,0.2-0.1,0.3c-0.1,0.2-0.1,0.4-0.2,0.5c0,0.1-0.1,0.2-0.1,0.3c0,0.2-0.1,0.4-0.1,0.6c0,0.1,0,0.2,0,0.3c0,0.1,0,0.1,0,0.2  v81.4c0,0-0.1,0-0.1,0c-2.4,0.4-4.3,2.4-4.3,4.9c0,2.8,2.2,5,5,5c0.1,0,0.3,0,1.7-0.3L28,620.4c0,0.1,0,0.2-0.1,0.3  c0,0.1,0,0.2-0.1,0.3c0,0.3-0.1,0.5-0.1,0.8v41.9c0,2.8,2.2,5,5,5h186.4c2.8,0,5-2.2,5-5c0-0.3,0-0.5-0.1-0.7c0.6-0.4,1.1-1,1.4-1.6  c16.6-31.4,52.8-59.9,101.8-80.4c49.9-20.9,111-32.4,172.1-32.4c61.1,0,122.2,11.5,172.1,32.4c49,20.5,85.2,49,101.8,80.4  c0.5,1,1.4,1.8,2.4,2.2c0,0.1,0,0.1,0,0.2c0,2.8,2.2,5,5,5H967c2.8,0,5-2.2,5-5v-41.9c0-0.3,0-0.5-0.1-0.8  C971.9,620.8,971.9,620.7,971.9,620.7z M568.6,513.5c-1-0.3-2-0.2-2.9,0.1c-0.3-0.1-0.6-0.2-0.9-0.2v-19.7c0.3,0,0.6-0.1,0.9-0.2  c0.1,0,0.2,0.1,0.3,0.1c19.9,5.2,38.9,10.1,56.9,14.8v19.2C603.5,522.6,585.1,517.8,568.6,513.5z M104.7,579v18.9c0,0.1,0,0.2,0,0.3  C74.6,606,51.4,612,39.9,614.9l5.8-20.7C55.5,591.6,73.1,587.1,104.7,579z M96.9,570.7c-15.3,3.9-28.5,7.3-38.9,10v-44.5  c0-10.9,8.6-19.7,19.2-19.7h0.5c10.6,0,19.2,8.8,19.2,19.7V570C96.9,570.2,96.9,570.5,96.9,570.7z M161.8,553.9  c-13.6,3.5-26.7,6.9-38.9,10.1v-44.3c0-10.9,8.6-19.7,19.2-19.7h0.5c10.6,0,19.2,8.8,19.2,19.7v33.8  C161.8,553.6,161.8,553.7,161.8,553.9z M226.7,537.1c-13.2,3.4-26.2,6.8-38.8,10.1v-44c0-10.9,8.6-19.7,19.2-19.7h0.5  c10.6,0,19.2,8.8,19.2,19.7v33.8C226.7,537,226.7,537,226.7,537.1z M356.6,503.4c-12.6,3.3-25.6,6.7-38.8,10.1V470  c0-10.9,8.6-19.7,19.2-19.7h0.5c10.6,0,19.2,8.8,19.2,19.7V503.4z M291.6,520.2c-12.9,3.4-25.9,6.7-38.8,10.1v-43.7  c0-10.9,8.6-19.7,19.2-19.7h0.5c10.6,0,19.2,8.8,19.2,19.7V520.2z M114.7,576.4c15.4-4,33.7-8.7,55.5-14.4v19.2  c-19.9,5.2-38.6,10-55.5,14.4V576.4z M180.2,559.5c16.6-4.3,35-9.1,55.5-14.4v19.2c-19,4.9-37.7,9.8-55.5,14.4V559.5z M245.7,542.5  c17.1-4.4,35.6-9.2,55.5-14.4v19.2c-18.4,4.8-37.1,9.6-55.5,14.4V542.5z M311.3,525.5c17.4-4.5,35.9-9.3,55.5-14.4v19.2  c-17.8,4.6-36.5,9.5-55.5,14.4V525.5z M421.5,486.5c-12.2,3.2-25.2,6.6-38.8,10.1v-43.1c0-10.9,8.6-19.7,19.2-19.7h0.5  c10.6,0,19.2,8.8,19.2,19.7V486.5z M376.8,508.5c17.6-4.6,36.1-9.4,55.5-14.4v19.4c-0.4,0-0.8,0.1-1.2,0.2  c-16.5,4.3-34.9,9.1-54.4,14.1V508.5z M442.3,493.8h112.6v19.5H442.3V493.8z M535.8,483.8h-73.2c0-0.1,0-0.1,0-0.2v-61.9  c0-20.4,16.2-37.1,36.2-37.1h0.8c20,0,36.2,16.6,36.2,37.1v61.9C535.8,483.7,535.8,483.8,535.8,483.8z M617.1,496.6  c-13.6-3.5-26.7-6.9-38.8-10.1v-33c0-10.9,8.6-19.7,19.2-19.7h0.5c10.6,0,19.2,8.8,19.2,19.7V496.6z M633,511.1  c19.6,5.1,38.1,9.9,55.5,14.4v19.2c-19-4.9-37.7-9.8-55.5-14.4V511.1z M941.8,580.7c-10.4-2.7-23.6-6.1-38.9-10  c0-0.2,0.1-0.4,0.1-0.7v-33.8c0-10.9,8.6-19.7,19.2-19.7h0.5c10.6,0,19.2,8.8,19.2,19.7V580.7z M876.8,564  c-12.2-3.2-25.2-6.5-38.9-10.1c0-0.1,0-0.3,0-0.4v-33.8c0-10.9,8.6-19.7,19.2-19.7h0.5c10.6,0,19.2,8.8,19.2,19.7V564z M811.9,547.1  c-12.6-3.3-25.7-6.6-38.8-10.1c0-0.1,0-0.1,0-0.2v-33.8c0-10.9,8.6-19.7,19.2-19.7h0.5c10.6,0,19.2,8.8,19.2,19.7V547.1z M747,530.3  c-12.9-3.4-25.9-6.7-38.8-10.1v-33.7c0-10.9,8.6-19.7,19.2-19.7h0.5c10.6,0,19.2,8.8,19.2,19.7V530.3z M682,513.5  c-13.2-3.4-26.2-6.8-38.8-10.1V470c0-10.9,8.6-19.7,19.2-19.7h0.5c10.6,0,19.2,8.8,19.2,19.7V513.5z M698.5,528.1  c20,5.2,38.4,10,55.5,14.4v19.2c-18.4-4.8-37.1-9.6-55.5-14.4V528.1z M764.1,545.1c20.5,5.3,39,10.1,55.5,14.4v19.2  c-17.9-4.6-36.5-9.5-55.5-14.4V545.1z M829.6,562.1c21.8,5.6,40.1,10.4,55.5,14.4v19.2c-16.9-4.4-35.6-9.2-55.5-14.4V562.1z   M895.1,597.9V579c31.5,8.1,49.1,12.6,59,15.1l5.8,20.7c-11.5-2.9-34.7-8.9-64.8-16.6C895.1,598.1,895.1,598,895.1,597.9z   M951.4,583.2c0.2-0.5,0.3-1.1,0.3-1.7v-45.2c0-16.4-13.1-29.7-29.2-29.7h-0.5c-16.1,0-29.2,13.3-29.2,29.7v31.9  c-2.1-0.5-4.2-1.1-6.4-1.6c0.2-0.5,0.3-1,0.3-1.6v-45.2c0-16.4-13.1-29.7-29.2-29.7h-0.5c-16.1,0-29.2,13.3-29.2,29.7v31.6  c-2.1-0.5-4.2-1.1-6.3-1.6c0.1-0.4,0.2-0.9,0.2-1.3v-45.2c0-16.4-13.1-29.7-29.2-29.7h-0.5c-16.1,0-29.2,13.3-29.2,29.7v31.4  c-2.1-0.5-4.1-1.1-6.2-1.6c0.1-0.3,0.1-0.7,0.1-1.1v-45.2c0-16.4-13.1-29.7-29.2-29.7h-0.5c-16.1,0-29.2,13.3-29.2,29.7v31.1  c-2.1-0.5-4.1-1.1-6.2-1.6c0-0.2,0.1-0.5,0.1-0.8V470c0-16.4-13.1-29.7-29.2-29.7h-0.5c-16.1,0-29.2,13.3-29.2,29.7v30.7  c-2.1-0.5-4.1-1.1-6.1-1.6c0-0.2,0-0.3,0-0.5v-45.2c0-16.4-13.1-29.7-29.2-29.7h-0.5c-16.1,0-29.2,13.3-29.2,29.7v30.4  c-0.9-0.2-1.8-0.1-2.6,0.2c-0.5-0.2-1-0.3-1.6-0.3h-0.3c0-0.1,0-0.1,0-0.2v-80l393.7,106v75.1C955.8,584.3,953.7,583.7,951.4,583.2z   M943.5,495.5L563.9,393.3v-7.5L930.6,484L943.5,495.5z M498.6,342.2l53,25.9H551c-2.8,0-5,2.2-5,5s2.2,5,5,5h3v105.5  c0,0.1,0,0.1,0,0.2h-8.2c0-0.1,0-0.1,0-0.2v-61.9c0-26-20.7-47.1-46.2-47.1h-0.8c-25.5,0-46.2,21.1-46.2,47.1v61.9  c0,0.1,0,0.1,0,0.2h-7.2c0-0.1,0-0.1,0-0.2V378.1h3.5c2.8,0,5-2.2,5-5s-2.2-5-5-5h-3.2L498.6,342.2z M69.2,484l366.2-98.1v7.5  l-379,102.1L69.2,484z M42.2,509.6l393.2-105.9v79.9c0,0.1,0,0.1,0,0.2h-3c-0.3,0-0.6,0-0.9,0.1v-30.4c0-16.4-13.1-29.7-29.2-29.7  h-0.5c-16.1,0-29.2,13.3-29.2,29.7v45.2c0,0.2,0,0.3,0,0.5c-2,0.5-4.1,1.1-6.1,1.6V470c0-16.4-13.1-29.7-29.2-29.7h-0.5  c-16.1,0-29.2,13.3-29.2,29.7v45.2c0,0.3,0,0.5,0.1,0.8c-2.1,0.5-4.1,1.1-6.2,1.6v-31.1c0-16.4-13.1-29.7-29.2-29.7H272  c-16.1,0-29.2,13.3-29.2,29.7v45.2c0,0.4,0,0.7,0.1,1.1c-2.1,0.5-4.1,1.1-6.2,1.6v-31.4c0-16.4-13.1-29.7-29.2-29.7h-0.5  c-16.1,0-29.2,13.3-29.2,29.7v45.2c0,0.5,0.1,0.9,0.2,1.3c-2.1,0.5-4.2,1.1-6.3,1.6v-31.6c0-16.4-13.1-29.7-29.2-29.7h-0.5  c-16.1,0-29.2,13.3-29.2,29.7v45.2c0,0.5,0.1,1.1,0.3,1.6c-2.2,0.6-4.3,1.1-6.4,1.6v-31.9c0-16.4-13.1-29.7-29.2-29.7h-0.5  c-16.1,0-29.2,13.3-29.2,29.7v45.2c0,0.6,0.1,1.2,0.3,1.7c-2.3,0.6-4.3,1.1-6.2,1.6V509.6z M782.7,658.7c0-0.7-0.2-1.4-0.6-2.1  c-17.7-33.4-55.6-63.6-106.8-84.9c-51.1-21.4-113.6-33.1-176-33.1c-62.4,0-124.8,11.8-176,33.1c-51.2,21.4-89.1,51.5-106.8,84.9  c-0.4,0.7-0.5,1.4-0.6,2.1H37.8v-33c16.1-3.9,85.7-21.7,395.3-102.3h131.1c0.6,0,1.1-0.1,1.6-0.3c0.1,0,0.2,0.1,0.3,0.1  c310.1,80.6,379.8,98.5,395.9,102.4v33H782.7z"/>
</svg>
