<?xml version="1.0" encoding="utf-8"?>
<svg version="1.1" x="0px" y="0px" viewBox="-5 -5 110 110" enable-background="new 0 0 100 100" width="500px" height="500px" xmlns="http://www.w3.org/2000/svg" style="width: 100%; height: 100%;">
  <path d="M88.494,63.411c-2.303-10.527-8.729-15.259-9.001-15.455c-0.586-0.422-1.371-0.436-1.974-0.035  c-0.377,0.253-9.279,6.256-11.336,12.818c-0.187,0.601-0.094,1.27,0.25,1.792c0.332,0.508,0.868,0.837,1.473,0.902l0.154,0.021  c0.506,0.065,1.674,0.216,3.074,0.175c-2.402,3.998-6.181,5.957-11.478,5.957c-1.541,0-2.796-1.252-2.796-2.791V35.424h7.52  c2.723,0,4.939-2.215,4.939-4.94c0-2.723-2.215-4.939-4.939-4.939h-7.52v-2.303c2.24-1.969,3.553-4.833,3.553-7.828  C60.414,9.672,55.743,5,50,5S39.586,9.672,39.587,15.415c0,2.995,1.314,5.859,3.553,7.828v2.303h-7.52  c-2.722,0-4.939,2.215-4.939,4.939s2.216,4.94,4.939,4.94h7.52v31.371c0,1.539-1.255,2.791-2.796,2.791  c-5.296,0-9.073-1.958-11.476-5.954c1.401,0.042,2.566-0.109,3.072-0.176l0.158-0.021c0.601-0.064,1.136-0.393,1.469-0.901  c0.343-0.523,0.436-1.191,0.248-1.795C31.76,54.182,22.858,48.177,22.48,47.924c-0.603-0.402-1.388-0.387-1.973,0.035  c-0.273,0.196-6.698,4.928-9,15.451c-0.137,0.621,0.02,1.283,0.417,1.773c0.387,0.474,0.956,0.744,1.561,0.744  c0.009,0,0.019,0,0.027,0.004c0.623-0.009,1.993-0.173,3.526-0.714c1.11,8.689,9.348,13.584,17.362,18.319  c5.357,3.165,10.415,6.154,13.188,10.09c0.53,0.754,1.232,1.196,2.002,1.319C49.722,94.979,49.858,95,50,95  c0.142,0,0.278-0.021,0.41-0.054c0.77-0.123,1.472-0.565,2.004-1.319c2.773-3.936,7.831-6.925,13.188-10.09  c8.017-4.736,16.253-9.631,17.363-18.321c1.532,0.54,2.9,0.704,3.52,0.712c0.009,0,0.019,0,0.029,0c0.607,0,1.174-0.271,1.563-0.746  C88.473,64.691,88.63,64.027,88.494,63.411z M83.643,61.771c-0.477-0.196-0.927-0.429-1.337-0.691  c-0.25-0.164-0.542-0.258-0.852-0.266c-0.054-0.003-0.106-0.008-0.16-0.006h-0.001c-0.002,0-0.004,0.001-0.006,0.001  c-0.111,0.005-0.22,0.021-0.327,0.047c-0.029,0.008-0.057,0.02-0.086,0.028c-0.077,0.023-0.154,0.048-0.229,0.082  c-0.034,0.016-0.064,0.036-0.098,0.054c-0.065,0.036-0.13,0.071-0.191,0.116c-0.031,0.022-0.059,0.05-0.089,0.075  c-0.056,0.046-0.111,0.092-0.161,0.146c-0.032,0.034-0.058,0.073-0.087,0.11c-0.037,0.046-0.077,0.087-0.109,0.138  c-0.004,0.007-0.006,0.014-0.01,0.021c-0.025,0.04-0.043,0.084-0.064,0.127c-0.03,0.06-0.064,0.117-0.087,0.179  c-0.008,0.019-0.01,0.039-0.017,0.059c-0.029,0.089-0.057,0.179-0.071,0.271c-0.002,0.013-0.001,0.026-0.003,0.04  c-0.014,0.101-0.021,0.201-0.017,0.302c0,0.003-0.001,0.007-0.001,0.011c0.371,8.391-7.484,13.031-15.801,17.945  C58.64,83.63,53.293,86.813,50,91.104c-3.254-4.269-8.621-7.464-13.838-10.545c-8.317-4.914-16.171-9.554-15.801-17.945  c0-0.006-0.001-0.012-0.001-0.018c0.002-0.054-0.006-0.108-0.009-0.163c-0.004-0.062-0.003-0.123-0.013-0.182  c0-0.003-0.001-0.005-0.002-0.007c-0.039-0.229-0.125-0.444-0.246-0.635l0,0c0,0,0,0,0,0c-0.062-0.098-0.133-0.187-0.212-0.27  c-0.01-0.011-0.022-0.019-0.033-0.029c-0.069-0.069-0.143-0.133-0.224-0.189c-0.015-0.011-0.03-0.018-0.045-0.027  c-0.079-0.052-0.16-0.099-0.247-0.137c-0.017-0.008-0.034-0.012-0.051-0.019c-0.085-0.034-0.171-0.065-0.262-0.086  c-0.031-0.007-0.063-0.008-0.093-0.014c-0.07-0.012-0.139-0.027-0.212-0.03c-0.01-0.001-0.019,0.002-0.028,0.001  c-0.01,0-0.02,0.001-0.029,0.001c-0.369-0.015-0.712,0.097-0.998,0.296c-0.399,0.251-0.835,0.478-1.298,0.669  c-0.328,0.135-0.644,0.244-0.939,0.332c1.696-5.68,4.706-9.109,6.208-10.547c2.387,1.77,6.376,5.194,8.202,8.613  c-0.532,0.021-1.135,0.01-1.765-0.063c-0.591-0.067-1.138-0.184-1.623-0.346c-0.019-0.006-0.037-0.007-0.056-0.013  c-0.07-0.021-0.14-0.035-0.212-0.047c-0.042-0.007-0.084-0.014-0.126-0.018c-0.067-0.007-0.135-0.006-0.203-0.004  c-0.047,0.001-0.094,0.002-0.141,0.008c-0.06,0.007-0.12,0.019-0.18,0.032c-0.054,0.012-0.107,0.024-0.16,0.041  c-0.024,0.008-0.049,0.011-0.073,0.02c-0.03,0.012-0.056,0.029-0.085,0.042c-0.053,0.023-0.105,0.049-0.156,0.077  c-0.049,0.027-0.095,0.057-0.14,0.088c-0.047,0.033-0.092,0.067-0.136,0.105c-0.041,0.035-0.08,0.071-0.117,0.109  c-0.041,0.042-0.079,0.087-0.116,0.133c-0.033,0.042-0.063,0.084-0.092,0.129c-0.032,0.049-0.062,0.1-0.088,0.152  c-0.025,0.05-0.047,0.1-0.068,0.151c-0.012,0.03-0.029,0.058-0.04,0.089c-0.008,0.025-0.01,0.051-0.017,0.076  c-0.015,0.053-0.026,0.105-0.036,0.159c-0.011,0.061-0.021,0.12-0.026,0.181c-0.003,0.049-0.003,0.097-0.003,0.145  c0,0.067,0.003,0.133,0.011,0.198c0.005,0.044,0.014,0.087,0.023,0.131c0.014,0.07,0.031,0.139,0.054,0.206  c0.006,0.019,0.008,0.038,0.015,0.057c2.735,7.321,8.141,11.034,16.072,11.034c3.45,0,6.257-2.805,6.257-6.254V33.692  c0-0.956-0.774-1.73-1.73-1.73h-9.25c-0.816,0-1.478-0.664-1.478-1.479s0.663-1.479,1.478-1.479h9.25c0.956,0,1.73-0.774,1.73-1.73  v-4.86c0-0.552-0.262-1.069-0.706-1.395c-1.783-1.309-2.847-3.406-2.847-5.606c0-3.83,3.112-6.945,6.94-6.953  c0.004,0,0.008,0.001,0.013,0.001c3.834,0,6.953,3.119,6.953,6.953c0,2.2-1.064,4.296-2.848,5.606  c-0.443,0.327-0.705,0.843-0.705,1.395v4.86c0,0.956,0.773,1.73,1.729,1.73h9.25c0.815,0,1.479,0.665,1.479,1.479  c0,0.815-0.664,1.479-1.479,1.479h-9.25c-0.956,0-1.729,0.774-1.729,1.73v33.102c0,3.447,2.807,6.252,6.257,6.252  c7.931,0,13.337-3.713,16.073-11.036c0.008-0.021,0.01-0.044,0.018-0.065c0.02-0.062,0.035-0.124,0.049-0.188  c0.01-0.049,0.021-0.098,0.026-0.146c0.007-0.062,0.009-0.122,0.01-0.185c0.001-0.053,0.001-0.104-0.003-0.156  c-0.005-0.058-0.014-0.115-0.024-0.174c-0.011-0.056-0.022-0.109-0.037-0.164c-0.008-0.025-0.009-0.051-0.018-0.076  c-0.011-0.031-0.027-0.058-0.04-0.088c-0.02-0.051-0.041-0.1-0.065-0.147c-0.028-0.056-0.06-0.109-0.093-0.16  c-0.026-0.041-0.055-0.08-0.085-0.119c-0.04-0.05-0.08-0.098-0.125-0.143c-0.034-0.035-0.069-0.067-0.106-0.1  c-0.048-0.042-0.097-0.08-0.149-0.116c-0.04-0.027-0.081-0.053-0.125-0.078c-0.057-0.032-0.115-0.061-0.176-0.087  c-0.025-0.011-0.047-0.025-0.072-0.035c-0.021-0.008-0.041-0.01-0.062-0.017c-0.065-0.021-0.131-0.037-0.199-0.051  c-0.044-0.009-0.088-0.019-0.132-0.023c-0.066-0.009-0.134-0.011-0.201-0.012c-0.047,0-0.093,0-0.14,0.003  c-0.062,0.005-0.123,0.015-0.185,0.026c-0.054,0.01-0.106,0.021-0.158,0.036c-0.025,0.007-0.05,0.009-0.075,0.017  c-0.485,0.161-1.033,0.278-1.627,0.346c-0.631,0.07-1.238,0.082-1.768,0.062c1.934-3.659,6.216-7.122,8.213-8.608  c1.508,1.443,4.51,4.871,6.203,10.541C84.289,62.016,83.973,61.906,83.643,61.771z"/>
  <path d="M50,12.049c-1.855,0-3.365,1.51-3.365,3.365S48.145,18.78,50,18.78c1.855,0,3.365-1.511,3.365-3.366  S51.855,12.049,50,12.049z"/>
</svg>
