<?xml version="1.0" encoding="utf-8"?>
<svg version="1.1" x="0px" y="0px" viewBox="3 3 94 94" style="enable-background:new 0 0 100 100; width: 100%; height: 100%;" xmlns="http://www.w3.org/2000/svg">
  <path d="M79,15c0.5527344,0,1-0.4477539,1-1s-0.4472656-1-1-1H21c-0.5527344,0-1,0.4477539-1,1s0.4472656,1,1,1h9v14h-9  c-0.5527344,0-1,0.4477539-1,1v43.6489258c0,0.5522461,0.4472656,1,1,1c6.2587891,0,11.3515625,5.0922852,11.3515625,11.3510742  c0,0.5522461,0.4472656,1,1,1h33.296875c0.5527344,0,1-0.4477539,1-1c0-6.2587891,5.0927734-11.3510742,11.3515625-11.3510742  c0.5527344,0,1-0.4477539,1-1V30c0-0.5522461-0.4472656-1-1-1h-9V15H79z M78,72.6860352  C71.4335938,73.1748047,66.1738281,78.434082,65.6855469,85H34.3144531C33.8261719,78.434082,28.5664062,73.1748047,22,72.6860352  V31h56V72.6860352z M68,29H32V15h36V29z M26,36v33.6914062c0,0.5522461,0.4472656,1,1,1  c4.7294922,0,9.9228516,4.871582,9.9228516,9.3085938c0,0.5522461,0.4472656,1,1,1h24.2519531c0.5527344,0,1-0.4477539,1-1  c0-4.5239258,5.0507812-9.3085938,9.8251953-9.3085938c0.5527344,0,1-0.4477539,1-1V36c0-0.5522461-0.4472656-1-1-1H27  C26.4472656,35,26,35.4477539,26,36z M28,37h44v31.7456055C66.8310547,69.3027344,61.8457031,74.0576172,61.2373047,79H38.8603516  C38.2460938,74.0551758,33.2148438,69.2983398,28,68.7451172V37z"/>
</svg>
