<?xml version="1.0" encoding="utf-8"?>
<svg version="1.1" x="0px" y="0px" viewBox="-4 -4 28 28" enable-background="new 0 0 20 20" xmlns="http://www.w3.org/2000/svg" style="width: 100%; height: 100%;">
  <g>
    <path fill="#000000" d="M19.8,14.4C19.6,14.1,19.3,14,19,14h-6v-3c0-0.6-0.4-1-1-1h-1V4c0-1.1,0.9-2,2-2c1.1,0,2,0.9,2,2v1h2V4   c0-2.2-1.8-4-4-4c-1.2,0-2.3,0.5-3,1.4C9.3,0.5,8.2,0,7,0C4.8,0,3,1.8,3,4v1h2V4c0-1.1,0.9-2,2-2c1.1,0,2,0.9,2,2v6H8   c-0.6,0-1,0.4-1,1v3H1c-0.3,0-0.6,0.1-0.8,0.4C0,14.6,0,15,0,15.3c0.5,1.8,1.9,3.4,3.9,4.6C4.1,20,4.2,20,4.4,20h11.2   c0.2,0,0.3,0,0.5-0.1c2-1.2,3.4-2.8,3.9-4.6C20,15,20,14.6,19.8,14.4z M9,12h2v2H9V12z M15.3,18H4.7c-0.9-0.6-1.6-1.3-2.1-2h14.9   C17,16.7,16.2,17.4,15.3,18z"/>
    <rect x="15" y="7" fill="#000000" width="2" height="2"/>
    <rect x="3" y="7" fill="#000000" width="2" height="2"/>
  </g>
</svg>
