<svg id="Livello_2" data-name="Livello 2" xmlns="http://www.w3.org/2000/svg" viewBox="0 0 195.48 195.48"><defs><style>.cls-1,.cls-2{fill:none;stroke:#000;stroke-width:4px;}.cls-1{stroke-linecap:round;stroke-linejoin:round;}.cls-2{stroke-miterlimit:10;}</style></defs><title>Tavola disegno 20</title><rect class="cls-1" x="86.92" y="98.04" width="21.64" height="21.64" rx="4.03" ry="4.03"/><path class="cls-1" d="M156.09,119.68c0,16.11-26.13,29.17-58.35,29.17s-58.35-13.06-58.35-29.17Z"/><line class="cls-1" x1="97.74" y1="98.04" x2="97.74" y2="59.58"/><path class="cls-1" d="M63.64,59.58a17.05,17.05,0,0,1,34.1,0"/><path class="cls-1" d="M97.74,59.58a17,17,0,0,1,34.09,0"/><line class="cls-1" x1="131.83" y1="70.51" x2="131.83" y2="71.76"/><line class="cls-1" x1="131.83" y1="79.44" x2="131.83" y2="80.68"/><line class="cls-1" x1="63.64" y1="70.51" x2="63.64" y2="71.76"/><line class="cls-1" x1="63.64" y1="79.44" x2="63.64" y2="80.68"/><rect class="cls-2" x="2" y="2" width="191.48" height="191.48" rx="16.25" ry="16.25"/></svg>