<svg id="Livello_2" data-name="Livello 2" xmlns="http://www.w3.org/2000/svg" viewBox="0 0 195.48 195.48"><defs><style>.cls-1,.cls-2{fill:none;stroke:#000;stroke-width:4px;}.cls-1{stroke-linecap:round;stroke-linejoin:round;}.cls-2{stroke-miterlimit:10;}</style></defs><title>Tavola disegno 11</title><line class="cls-1" x1="102.57" y1="115.18" x2="102.57" y2="147.95"/><line class="cls-1" x1="93.44" y1="115.18" x2="93.44" y2="147.95"/><path class="cls-1" d="M97.52,92.8C87.27,92.8,79,83.58,79,72.2c0-7.38,4.56-14.4,9.82-18"/><path class="cls-1" d="M89.12,53.83s3-2.23,3-9.06"/><path class="cls-1" d="M97.74,92.8c10.24,0,18.55-9.22,18.55-20.6,0-7.38-4.56-14.4-9.82-18"/><path class="cls-1" d="M106.13,53.83s-3-2.23-3-9.06"/><line class="cls-1" x1="97.52" y1="94.89" x2="74.7" y2="94.89"/><path class="cls-1" d="M74.72,110.21a7.66,7.66,0,0,1,0-15.32"/><path class="cls-1" d="M75.25,100.91a4.7,4.7,0,0,1-1.78,9.22"/><line class="cls-1" x1="97.69" y1="94.89" x2="120.51" y2="94.89"/><path class="cls-1" d="M120.49,110.21a7.66,7.66,0,1,0,0-15.32"/><path class="cls-1" d="M120,100.91a4.7,4.7,0,1,0,1.78,9.22"/><path class="cls-1" d="M80.5,105.56h34.25a0,0,0,0,1,0,0v38.36a4.5,4.5,0,0,1-4.5,4.5H85a4.5,4.5,0,0,1-4.5-4.5V105.56A0,0,0,0,1,80.5,105.56Z"/><line class="cls-1" x1="85.58" y1="42.94" x2="109.1" y2="42.94"/><rect class="cls-2" x="2" y="2" width="191.48" height="191.48" rx="16.25" ry="16.25"/></svg>