<?xml version="1.0" encoding="utf-8"?>
<svg version="1.1" x="0px" y="0px" viewBox="2.5 3.3310000896453857 94 94.00299835205078" style="enable-background:new 0 0 100 100; width: 100%; height: 100%;" xmlns="http://www.w3.org/2000/svg">
  <style type="text/css">
	.st0{fill:none;stroke:#000000;stroke-width:2;stroke-linecap:round;stroke-linejoin:round;stroke-miterlimit:10;}
	.st1{fill:none;stroke:#000000;stroke-width:1.8;stroke-linecap:round;stroke-linejoin:round;stroke-miterlimit:10;}
	.st2{fill:none;stroke:#000000;stroke-width:2;stroke-linecap:round;stroke-linejoin:round;}
	.st3{fill:none;stroke:#000000;stroke-width:2;stroke-linecap:round;stroke-linejoin:round;stroke-dasharray:2.9177,3.8902;}
	.st4{fill:none;stroke:#000000;stroke-width:2;stroke-miterlimit:10;}
</style>
  <path d="M38.116,49.986v0.146h-3.813c-4.583,0-8.311,3.729-8.311,8.311s3.728,8.311,8.311,8.311c1.558,0,2.964-0.447,4.136-1.244  v23.824c0,0.553,0.448,1,1,1s1-0.447,1-1V63.48c0.613-0.924,1.058-2.015,1.298-3.237h16.026c0.239,1.222,0.685,2.314,1.298,3.238  v25.853c0,0.553,0.448,1,1,1s1-0.447,1-1V65.51c1.172,0.796,2.577,1.243,4.136,1.243c4.583,0,8.311-3.729,8.311-8.311  s-3.728-8.311-8.311-8.311h-3.563v-0.146c0-1.407-0.807-2.63-1.983-3.229c3.401-2.866,5.436-7.137,5.436-11.648  c0-6.114-3.705-11.655-9.294-14.018l0.288-5.054c1.266-0.308,2.208-1.451,2.208-2.811c0-1.596-1.297-2.894-2.893-2.894H44.353  c-1.595,0-2.893,1.298-2.893,2.894c0,1.359,0.942,2.503,2.208,2.811l0.288,5.054c-5.588,2.362-9.293,7.903-9.293,14.018  c0,4.511,2.035,8.782,5.436,11.648C38.923,47.356,38.116,48.579,38.116,49.986z M71.507,58.443c0,3.479-2.831,6.311-6.311,6.311  c-2.885,0-4.995-2.029-5.502-5.188c0.032-0.947,0.348-3.198,2.611-3.198c1.985,0,2.692,1.747,2.692,3.383c0,0.553,0.448,1,1,1  s1-0.447,1-1c0-3.22-1.886-5.383-4.692-5.383c-2.299,0-3.952,1.513-4.446,3.875H41.639c-0.496-2.362-2.155-3.875-4.461-3.875  c-2.807,0-4.692,2.163-4.692,5.383c0,0.553,0.448,1,1,1s1-0.447,1-1c0-1.636,0.708-3.383,2.692-3.383  c2.276,0,2.594,2.251,2.627,3.198c-0.507,3.159-2.617,5.188-5.502,5.188c-3.479,0-6.311-2.831-6.311-6.311s2.831-6.311,6.311-6.311  h30.894C68.676,52.133,71.507,54.964,71.507,58.443z M36.663,35.109c0-5.528,3.487-10.517,8.676-12.413  c0.414-0.151,0.68-0.557,0.655-0.996l-0.378-6.637c-0.03-0.529-0.468-0.943-0.999-0.943h-0.265c-0.493,0-0.893-0.4-0.893-0.893  c0-0.493,0.4-0.894,0.893-0.894h11.043c0.492,0,0.893,0.4,0.893,0.894c0,0.492-0.4,0.893-0.893,0.893h-0.265  c-0.53,0-0.968,0.414-0.999,0.943L53.754,21.7c-0.025,0.439,0.241,0.845,0.655,0.996c5.19,1.896,8.677,6.885,8.677,12.413  c0,4.66-2.5,9.026-6.526,11.394c-0.389,0.229-0.577,0.689-0.458,1.125s0.514,0.737,0.965,0.737h0.944  c0.894,0,1.622,0.728,1.622,1.621v0.146H40.116v-0.146c0-0.894,0.727-1.621,1.621-1.621h0.944c0.451,0,0.846-0.302,0.965-0.737  s-0.069-0.896-0.458-1.125C39.163,44.136,36.663,39.77,36.663,35.109z"/>
  <path d="M43.699,65.754v23.58c0,0.553,0.448,1,1,1s1-0.447,1-1v-23.58c0-0.553-0.448-1-1-1S43.699,65.201,43.699,65.754z"/>
  <path d="M53.533,65.754v23.58c0,0.553,0.448,1,1,1s1-0.447,1-1v-23.58c0-0.553-0.448-1-1-1S53.533,65.201,53.533,65.754z"/>
  <path d="M48.75,65.754v23.58c0,0.553,0.448,1,1,1s1-0.447,1-1v-23.58c0-0.553-0.448-1-1-1S48.75,65.201,48.75,65.754z"/>
</svg>
