<?xml version="1.0" encoding="utf-8"?>
<svg version="1.1" x="0px" y="0px" viewBox="4 2.5999999046325684 92 92" style="enable-background:new 0 0 100 100; width: 100%; height: 100%;" width="500px" height="500px" xmlns="http://www.w3.org/2000/svg">
  <style type="text/css">
	.st0{fill:none;stroke:#000000;stroke-width:2;stroke-linecap:round;stroke-linejoin:round;stroke-miterlimit:10;}
	.st1{stroke:#000000;stroke-linecap:round;stroke-linejoin:round;stroke-miterlimit:10;}
	.st2{fill:none;stroke:#000000;stroke-width:2;stroke-miterlimit:10;}
</style>
  <path d="M58.7,55.7c0.6,0,1-0.4,1-1v-9.3c0-0.6-0.4-1-1-1h-2.6v-3.5c0-0.6-0.4-1-1-1H43.4c-0.6,0-1,0.4-1,1v3.5h-2.5  c-0.6,0-1,0.4-1,1v9.3c0,0.6,0.4,1,1,1h8.4v26.7H42c-0.6,0-1,0.4-1,1s0.4,1,1,1h14.7c0.6,0,1-0.4,1-1s-0.4-1-1-1h-6.3V55.7H58.7z   M44.4,41.8h9.7v2.5h-9.7V41.8z M40.9,53.7v-7.3h16.8v7.3H40.9z"/>
  <path d="M66.4,82.3c-0.6,0-1,0.4-1,1s0.4,1,1,1h8.1c0.6,0,1-0.4,1-1s-0.4-1-1-1h-3V34.8c0-12.2-9.9-22.2-22.2-22.2  s-22.2,9.9-22.2,22.2v47.5h-3c-0.6,0-1,0.4-1,1s0.4,1,1,1h8.1c0.6,0,1-0.4,1-1s-0.4-1-1-1h-3V34.8c0-11.1,9-20.2,20.2-20.2  s20.2,9,20.2,20.2v47.5H66.4z"/>
</svg>
