<svg id="Livello_2" data-name="Livello 2" xmlns="http://www.w3.org/2000/svg" viewBox="0 0 195.48 195.48"><defs><style>.cls-1,.cls-2{fill:none;stroke:#000;stroke-width:4px;}.cls-1{stroke-linecap:round;stroke-linejoin:round;}.cls-2{stroke-miterlimit:10;}</style></defs><title>Tavola disegno 9</title><path class="cls-1" d="M98.08,40.6c2.59,2.59,2.27,4.58,1.49,5.82a4.57,4.57,0,0,1-2.37,1.79L64.9,59.59a4.92,4.92,0,0,0-3.27,4.5L60.9,91.21a4.28,4.28,0,0,0,0,.62c.35,3.6,6.3,36.32,36.34,49.74"/><path class="cls-1" d="M97.13,141.57c-2.56,2.63-2.2,4.61-1.4,5.84a4.52,4.52,0,0,0,2.4,1.75"/><path class="cls-1" d="M97.4,40.6c-2.6,2.59-2.27,4.58-1.49,5.82a4.53,4.53,0,0,0,2.37,1.79l32.29,11.38a4.93,4.93,0,0,1,3.28,4.5l.73,27.12a4.28,4.28,0,0,1,0,.62c-.36,3.6-6.3,36.32-36.35,49.74"/><path class="cls-1" d="M98.35,141.57c2.55,2.63,2.2,4.61,1.4,5.84a4.55,4.55,0,0,1-2.4,1.75"/><circle class="cls-1" cx="97.08" cy="90.74" r="15.56"/><rect class="cls-2" x="2" y="2" width="191.48" height="191.48" rx="19.83" ry="19.83"/></svg>