<?xml version="1.0" encoding="utf-8"?>
<svg version="1.1" x="0px" y="0px" viewBox="-6 -6 76 76" style="enable-background:new 0 0 64 64; width: 100%; height: 100%;" xmlns="http://www.w3.org/2000/svg">
  <g>
    <path d="M44,30.248c0-6.855-0.571-13.759-1.698-20.521C41.459,4.67,37.127,1,32,1s-9.459,3.67-10.302,8.727   C20.571,16.489,20,23.393,20,30.248V55h-3v8h30v-8h-3V30.248z M22,30.248c0-6.745,0.562-13.539,1.671-20.192   C24.353,5.967,27.855,3,32,3s7.647,2.967,8.329,7.056C41.438,16.709,42,23.503,42,30.248V55H22V30.248z M45,61H19v-4h26V61z"/>
    <path d="M32,15c2.206,0,4-1.794,4-4s-1.794-4-4-4s-4,1.794-4,4S29.794,15,32,15z M32,9c1.103,0,2,0.897,2,2s-0.897,2-2,2   s-2-0.897-2-2S30.897,9,32,9z"/>
    <path d="M32,25c3.309,0,6-2.691,6-6v-1H26v1C26,22.309,28.691,25,32,25z M35.873,20c-0.444,1.723-2.013,3-3.873,3   s-3.429-1.277-3.873-3H35.873z"/>
    <rect x="26" y="28" width="12" height="2"/>
    <rect x="26" y="34" width="12" height="2"/>
    <rect x="26" y="40" width="12" height="2"/>
    <path d="M25,53h14v-8H25V53z M27,47h10v4H27V47z"/>
    <path d="M59,39c0-2.206-1.794-4-4-4h-4c-2.206,0-4,1.794-4,4c0,1.474,0.81,2.75,2,3.444V63h8V42.444C58.19,41.75,59,40.474,59,39z    M51,61V47h4v14H51z M55,45h-4v-2h4V45z M55,41h-4c-1.103,0-2-0.897-2-2s0.897-2,2-2h4c1.103,0,2,0.897,2,2S56.103,41,55,41z"/>
    <path d="M17,39c0-2.206-1.794-4-4-4H9c-2.206,0-4,1.794-4,4c0,1.474,0.81,2.75,2,3.444V63h8V42.444C16.19,41.75,17,40.474,17,39z    M9,61V47h4v14H9z M13,45H9v-2h4V45z M13,41H9c-1.103,0-2-0.897-2-2s0.897-2,2-2h4c1.103,0,2,0.897,2,2S14.103,41,13,41z"/>
  </g>
</svg>
