<?xml version="1.0" encoding="utf-8"?>
<svg version="1.1" x="0px" y="0px" viewBox="-15 -15 130 130" width="500px" height="500px" xmlns="http://www.w3.org/2000/svg" style="width: 100%; height: 100%;">
  <g transform="translate(0,-952.36218)">
    <path style="font-size:medium;font-style:normal;font-variant:normal;font-weight:normal;font-stretch:normal;text-indent:0;text-align:start;text-decoration:none;line-height:normal;letter-spacing:normal;word-spacing:normal;text-transform:none;direction:ltr;block-progression:tb;writing-mode:lr-tb;text-anchor:start;baseline-shift:baseline;opacity:1;color:#000000;fill:#000000;fill-opacity:1;stroke:none;stroke-width:6;marker:none;visibility:visible;display:inline;overflow:visible;enable-background:accumulate;font-family:Sans;-inkscape-font-specification:Sans" d="m 50,5 c -2.424429,0 -4.619231,0.37637 -6.46875,1.09375 -1.849519,0.71738 -3.669223,1.64479 -4.40625,4 -0.01093,0.03108 -0.02135,0.06233 -0.03125,0.09375 l -2.65625,9.71875 c -0.248116,0.157526 -0.507916,0.30282 -0.75,0.46875 C 31.398243,23.31496 28,28.06097 28,34 28,45.15569 27.351105,54.169392 23.0625,62.28125 l -2.25,0.96875 c -3.31827,1.4406 -6.101345,4.1539 -8.21875,7.3125 C 10.476345,73.7211 9,77.3422 9,81 l 0,11 c 1.571e-4,1.570753 1.429247,2.999843 3,3 l 76,0 c 1.570753,-1.57e-4 2.999843,-1.429247 3,-3 L 91,81 C 91,77.342 89.523748,73.7206 87.40625,70.5625 85.288752,67.4044 82.503866,64.6919 79.1875,63.25 l -2.25,-0.96875 C 72.648895,54.169392 72,45.15569 72,34 72,28.06097 68.601757,23.31496 64.3125,20.375 64.06709,20.20679 63.814615,20.064251 63.5625,19.90625 L 60.90625,10.1875 c -0.0099,-0.03142 -0.02032,-0.06267 -0.03125,-0.09375 -0.737027,-2.35521 -2.556731,-3.28262 -4.40625,-4 C 54.619231,5.37632 52.424429,5 50,5 z m 0,6 c 1.76223,0 3.303687,0.30833 4.28125,0.6875 0.58073,0.22525 0.84041,0.481253 0.90625,0.5 l 2.53125,9.1875 C 57.441752,21.54391 57.211032,21.70569 56.6875,21.90625 55.122751,22.5057 52.674555,23 50,23 47.325445,23 44.877249,22.5057 43.3125,21.90625 42.788968,21.70569 42.558248,21.54391 42.28125,21.375 l 2.53125,-9.1875 c 0.06584,-0.01875 0.325519,-0.27475 0.90625,-0.5 C 46.696313,11.30833 48.23777,11 50,11 z M 38.25,25.96875 C 39.108226,26.614419 40.077367,27.086682 41.15625,27.5 43.579652,28.4284 46.627158,29 50,29 53.372842,29 56.420348,28.4284 58.84375,27.5 59.922633,27.086682 60.891774,26.614419 61.75,25.96875 64.38698,28.022449 66,30.602791 66,34 c 0,0.367388 -0.0015,0.728655 0,1.09375 -2.666569,0.404404 -5.627021,0.543348 -8.03125,0.0625 -2.551737,-0.51035 -4.258278,-1.45406 -5.28125,-3.5 C 52.153083,30.576583 50.918191,29.887643 49.71875,30 c -1.012447,0.09586 -1.955202,0.744771 -2.40625,1.65625 -1.022972,2.04594 -2.729513,2.98965 -5.28125,3.5 -2.404229,0.480848 -5.364681,0.341904 -8.03125,-0.0625 0.0015,-0.365095 0,-0.726362 0,-1.09375 0,-3.397209 1.61302,-5.977551 4.25,-8.03125 z M 50,37.6875 c 1.966295,1.76713 4.361151,2.89098 6.78125,3.375 2.239478,0.4479 4.465226,0.42064 6.625,0.28125 -1.082389,5.86086 -2.887222,10.8942 -5.09375,14.4375 C 55.647684,60.06055 52.733231,62 50,62 c -2.733231,0 -5.647684,-1.93945 -8.3125,-6.21875 -2.206528,-3.5433 -4.011361,-8.57664 -5.09375,-14.4375 2.159774,0.13939 4.385522,0.16665 6.625,-0.28125 C 45.638849,40.57848 48.033705,39.45463 50,37.6875 z M 32.90625,51.125 c 0.726889,2.066159 1.564877,4.017446 2.5,5.78125 l -4.375,1.90625 c 0.836283,-2.507715 1.439158,-5.062366 1.875,-7.6875 z m 34.1875,0 c 0.435842,2.625134 1.038717,5.179785 1.875,7.6875 l -4.375,-1.90625 c 0.935123,-1.763804 1.773111,-3.715091 2.5,-5.78125 z M 38.78125,61.96875 C 41.822138,65.617739 45.628185,68 50,68 c 4.371815,0 8.177862,-2.382261 11.21875,-6.03125 l 4.46875,1.9375 C 58.518984,69.311259 53.544089,77.664918 51.4375,89 l -2.875,0 C 46.455911,77.664918 41.481016,69.311259 34.3125,63.90625 z M 27.75,66.75 C 35.068156,70.894996 40.158322,77.812528 42.4375,89 L 15,89 15,81 c 0,-1.8822 0.981587,-4.68885 2.59375,-7.09375 1.612163,-2.4048 3.830293,-4.39065 5.59375,-5.15625 z m 44.5,0 4.5625,2 c 1.764188,0.767 3.981387,2.75155 5.59375,5.15625 C 84.018613,76.31105 85,79.118 85,81 l 0,8 -27.4375,0 C 59.841678,77.812528 64.931844,70.894996 72.25,66.75 z" transform="translate(0,952.36218)"/>
  </g>
</svg>
